<svg t="1628077540209" class="icon" viewBox="0 0 1024 1024" version="1.1" xmlns="http://www.w3.org/2000/svg" p-id="19185" width="168" height="168"><path d="M511.0784 227.6352m-142.7968 0a142.7968 142.7968 0 1 0 285.5936 0 142.7968 142.7968 0 1 0-285.5936 0Z" fill="#FACC31" p-id="19186"></path><path d="M875.9808 594.6368c0.512-7.7824 0.768-15.616 0.768-23.3984 0-136.2432-77.056-261.5808-197.5808-323.5328 0.768-6.5536 1.2288-13.2608 1.2288-20.0192 0-92.8256-75.52-168.3968-168.3968-168.3968S343.6032 134.8096 343.6032 227.6352c0 7.168 0.512 14.1824 1.3824 21.0944-119.2448 62.3104-195.5328 187.2896-195.5328 322.5088 0 7.5264 0.256 15.0528 0.7168 22.5792-62.6688 24.5248-107.1616 85.5552-107.1616 156.8256 0 92.8256 75.52 168.3968 168.3968 168.3968 41.3184 0 79.1552-14.9504 108.4928-39.7312 57.856 36.4032 124.2112 55.6032 193.2288 55.6032 68.4544 0 134.4-18.944 191.9488-54.784 29.184 24.32 66.7136 38.9632 107.5712 38.9632 92.8256 0 168.3968-75.52 168.3968-168.3968-0.0512-70.5024-43.52-130.9696-105.0624-156.0576zM512 110.4896c64.6144 0 117.1968 52.5824 117.1968 117.1968S576.6144 344.832 512 344.832 394.8032 292.2496 394.8032 227.6352 447.3856 110.4896 512 110.4896zM94.208 750.6432c0-64.6144 52.5824-117.1968 117.1968-117.1968 64.6144 0 117.1968 52.5824 117.1968 117.1968 0 64.6144-52.5824 117.1968-117.1968 117.1968-64.6144-0.0512-117.1968-52.5824-117.1968-117.1968z m259.6864 89.4976a167.5264 167.5264 0 0 0 25.856-89.4976c0-92.8256-75.52-168.3968-168.3968-168.3968-3.4816 0-6.9632 0.1536-10.3936 0.3584-0.1536-3.7888-0.3072-7.5776-0.3072-11.3664 0-112.6912 61.696-217.1392 158.9248-272.1792C386.5088 356.3008 444.672 396.032 512 396.032c67.6864 0 126.1568-40.192 152.8832-97.9456 98.304 54.784 160.6656 159.5904 160.6656 273.152 0 3.84-0.2048 7.68-0.3584 11.52-4.1472-0.3072-8.3456-0.512-12.5952-0.512-92.8256 0-168.3968 75.52-168.3968 168.3968 0 33.28 9.728 64.3072 26.4704 90.4192-47.6672 27.9552-101.632 42.5984-157.5936 42.5984-56.576 0-111.104-15.0016-159.1808-43.52z m458.7008 27.648c-64.6144 0-117.1968-52.5824-117.1968-117.1968 0-64.6144 52.5824-117.1968 117.1968-117.1968 64.6144 0 117.1968 52.5824 117.1968 117.1968 0 64.6656-52.5824 117.1968-117.1968 117.1968z" fill="#191919" p-id="19187"></path></svg>